<svg width="11" height="18" viewBox="0 0 11 18" fill="#000000" xmlns="http://www.w3.org/2000/svg">
<path d="M4.74674 17.16V0.239999H6.54674V17.16H4.74674ZM5.39474 15.216C4.38674 15.216 3.42074 15.084 2.49674 14.82C1.57274 14.544 0.828742 14.19 0.264742 13.758L1.25474 11.562C1.79474 11.946 2.43074 12.264 3.16274 12.516C3.90674 12.756 4.65674 12.876 5.41274 12.876C5.98874 12.876 6.45074 12.822 6.79874 12.714C7.15874 12.594 7.42274 12.432 7.59074 12.228C7.75874 12.024 7.84274 11.79 7.84274 11.526C7.84274 11.19 7.71074 10.926 7.44674 10.734C7.18274 10.53 6.83474 10.368 6.40274 10.248C5.97074 10.116 5.49074 9.996 4.96274 9.888C4.44674 9.768 3.92474 9.624 3.39674 9.456C2.88074 9.288 2.40674 9.072 1.97474 8.808C1.54274 8.544 1.18874 8.196 0.912742 7.764C0.648742 7.332 0.516742 6.78 0.516742 6.108C0.516742 5.388 0.708742 4.734 1.09274 4.146C1.48874 3.546 2.07674 3.072 2.85674 2.724C3.64874 2.364 4.63874 2.184 5.82674 2.184C6.61874 2.184 7.39874 2.28 8.16674 2.472C8.93474 2.652 9.61274 2.928 10.2007 3.3L9.30074 5.514C8.71274 5.178 8.12474 4.932 7.53674 4.776C6.94874 4.608 6.37274 4.524 5.80874 4.524C5.24474 4.524 4.78274 4.59 4.42274 4.722C4.06274 4.854 3.80474 5.028 3.64874 5.244C3.49274 5.448 3.41474 5.688 3.41474 5.964C3.41474 6.288 3.54674 6.552 3.81074 6.756C4.07474 6.948 4.42274 7.104 4.85474 7.224C5.28674 7.344 5.76074 7.464 6.27674 7.584C6.80474 7.704 7.32674 7.842 7.84274 7.998C8.37074 8.154 8.85074 8.364 9.28274 8.628C9.71474 8.892 10.0627 9.24 10.3267 9.672C10.6027 10.104 10.7407 10.65 10.7407 11.31C10.7407 12.018 10.5427 12.666 10.1467 13.254C9.75074 13.842 9.15674 14.316 8.36474 14.676C7.58474 15.036 6.59474 15.216 5.39474 15.216Z" fill="black" fill-opacity="0.87"/>
</svg>
